<?xml version="1.0" encoding="UTF-8" standalone="no"?>
<svg
   xmlns:dc="http://purl.org/dc/elements/1.1/"
   xmlns:cc="http://creativecommons.org/ns#"
   xmlns:rdf="http://www.w3.org/1999/02/22-rdf-syntax-ns#"
   xmlns:svg="http://www.w3.org/2000/svg"
   xmlns="http://www.w3.org/2000/svg"
   xmlns:sodipodi="http://sodipodi.sourceforge.net/DTD/sodipodi-0.dtd"
   xmlns:inkscape="http://www.inkscape.org/namespaces/inkscape"
   inkscape:version="1.0 (4035a4fb49, 2020-05-01)"
   sodipodi:docname="ic_system_icon_24px.ai"
   viewBox="0 0 32 32"
   height="32"
   width="32"
   xml:space="preserve"
   id="svg2"
   version="1.1"><metadata
     id="metadata8"><rdf:RDF><cc:Work
         rdf:about=""><dc:format>image/svg+xml</dc:format><dc:type
           rdf:resource="http://purl.org/dc/dcmitype/StillImage" /><dc:title></dc:title></cc:Work></rdf:RDF></metadata><defs
     id="defs6"><clipPath
       id="clipPath18"
       clipPathUnits="userSpaceOnUse"><path
         id="path16"
         d="M 0,24 H 24 V 0 H 0 Z" /></clipPath><clipPath
       id="clipPath26"
       clipPathUnits="userSpaceOnUse"><path
         id="path24"
         d="M 2.00005,22 H 22 V 2.00005 H 2.00005 Z" /></clipPath><clipPath
       id="clipPath42"
       clipPathUnits="userSpaceOnUse"><path
         id="path40"
         d="M 3,21 H 21 V 3 H 3 Z" /></clipPath><clipPath
       id="clipPath58"
       clipPathUnits="userSpaceOnUse"><path
         id="path56"
         d="M 4,22 H 20 V 2 H 4 Z" /></clipPath><clipPath
       id="clipPath74"
       clipPathUnits="userSpaceOnUse"><path
         id="path72"
         d="M 2,20 H 22 V 4 H 2 Z" /></clipPath><clipPath
       id="clipPath90"
       clipPathUnits="userSpaceOnUse"><path
         id="path88"
         d="M 0,24 H 24 V 0 H 0 Z" /></clipPath><clipPath
       id="clipPath100"
       clipPathUnits="userSpaceOnUse"><path
         id="path98"
         d="M 0,48 H 48 V 0 H 0 Z" /></clipPath><clipPath
       id="clipPath108"
       clipPathUnits="userSpaceOnUse"><path
         id="path106"
         d="M 0,24 H 24 V 0 H 0 Z" /></clipPath><clipPath
       id="clipPath116"
       clipPathUnits="userSpaceOnUse"><path
         id="path114"
         d="M -2.13623e-4,24.0002 H 23.9997 V 2.74658e-4 H -2.13623e-4 Z" /></clipPath><clipPath
       id="clipPath120"
       clipPathUnits="userSpaceOnUse"><path
         id="path118"
         d="M -2.13623e-4,47.9998 H 47.9998 V -1.52588e-4 H -2.13623e-4 Z" /></clipPath><clipPath
       id="clipPath124"
       clipPathUnits="userSpaceOnUse"><path
         id="path122"
         d="M 48,48 H 0 V 0 h 48 z" /></clipPath><clipPath
       id="clipPath332"
       clipPathUnits="userSpaceOnUse"><path
         id="path330"
         d="M 0,24 H 24 V 0 H 0 Z" /></clipPath><clipPath
       id="clipPath342"
       clipPathUnits="userSpaceOnUse"><path
         id="path340"
         d="M -2.28882e-4,48.0001 H 47.9998 V 1.2207e-4 H -2.28882e-4 Z" /></clipPath><clipPath
       id="clipPath350"
       clipPathUnits="userSpaceOnUse"><path
         id="path348"
         d="M -2.28882e-4,48.0001 H 47.9998 V 1.2207e-4 H -2.28882e-4 Z" /></clipPath><clipPath
       id="clipPath354"
       clipPathUnits="userSpaceOnUse"><path
         id="path352"
         d="M 0,0 H 48 V 48 H 0 Z" /></clipPath></defs><sodipodi:namedview
     inkscape:current-layer="g10"
     inkscape:window-maximized="1"
     inkscape:window-y="-9"
     inkscape:window-x="-9"
     inkscape:cy="16"
     inkscape:cx="16"
     inkscape:zoom="25.03125"
     inkscape:guide-bbox="true"
     showguides="true"
     showgrid="false"
     id="namedview4"
     inkscape:window-height="1001"
     inkscape:window-width="1920"
     inkscape:pageshadow="2"
     inkscape:pageopacity="0"
     guidetolerance="10"
     gridtolerance="10"
     objecttolerance="10"
     borderopacity="1"
     bordercolor="#666666"
     pagecolor="#ffffff"><sodipodi:guide
       id="guide1298"
       orientation="1,0"
       position="12.104869,10.586767" /><sodipodi:guide
       id="guide1306"
       orientation="1,0"
       position="14.102372,10.466916" /><sodipodi:guide
       id="guide1329"
       orientation="0,-1"
       position="13.503121,12.224719" /><sodipodi:guide
       id="guide1331"
       orientation="0,-1"
       position="13.10362,8.5892634" /><sodipodi:guide
       id="guide1335"
       orientation="1,0"
       position="13.503121,12.224719" /><sodipodi:guide
       id="guide1337"
       orientation="0,-1"
       position="13.503121,12.365816" /><sodipodi:guide
       id="guide1339"
       orientation="0,-1"
       position="13.503121,8.3445755" /></sodipodi:namedview><g
     transform="matrix(1.3333333,0,0,-1.3333333,0,32)"
     inkscape:label="ic_system_icon_24px"
     inkscape:groupmode="layer"
     id="g10"><g
       id="g84"><g
         clip-path="url(#clipPath90)"
         id="g86"><g
           transform="matrix(0.4999976,0,0,-0.4999976,-1.144e-4,24.00008)"
           id="g92"><g
             id="g94"><g
               clip-path="url(#clipPath100)"
               id="g96" /></g></g></g></g><g
       transform="matrix(0.54791142,0,0,-0.5416703,0.28885379,13.006467)"
       id="g1271"><path
         d="M 0,0 H 24 V 24 H 0 Z"
         fill="none"
         id="path1257" /><path
         d="M 15.5,14 H 14.71 L 14.43,13.73 C 15.41,12.59 16,11.11 16,9.5 16,5.91 13.09,3 9.5,3 5.91,3 3,5.91 3,9.5 3,13.09 5.91,16 9.5,16 c 1.61,0 3.09,-0.59 4.23,-1.57 L 14,14.71 v 0.79 l 5,4.99 1.49,-1.49 z m -6,0 C 7.01,14 5,11.99 5,9.5 5,7.01 7.01,5 9.5,5 11.99,5 14,7.01 14,9.5 14,11.99 11.99,14 9.5,14 Z"
         id="path1259" /></g></g><g
     style="display:inline"
     inkscape:label="cap"
     id="layer1"
     inkscape:groupmode="layer"><g
       transform="translate(4,3.9999994)"
       id="g1255"><path
         d="M 0,0 H 24 V 24 H 0 Z"
         fill="none"
         id="path1241" /><path
         sodipodi:nodetypes="ccccccccccccccc"
         d="m 9.503121,15.634185 c 0.576369,1.46049 0.585509,2.802808 0,4.02124 L 12,21 19,17.18 v -4 L 12,17 Z M 12,3 1,9 12,15 21,10.09 V 17 h 2 V 9 Z"
         id="path1243" /></g></g></svg>
