<?xml version="1.0" encoding="UTF-8" standalone="no"?>
<svg
   xmlns:dc="http://purl.org/dc/elements/1.1/"
   xmlns:cc="http://creativecommons.org/ns#"
   xmlns:rdf="http://www.w3.org/1999/02/22-rdf-syntax-ns#"
   xmlns:svg="http://www.w3.org/2000/svg"
   xmlns="http://www.w3.org/2000/svg"
   xmlns:sodipodi="http://sodipodi.sourceforge.net/DTD/sodipodi-0.dtd"
   xmlns:inkscape="http://www.inkscape.org/namespaces/inkscape"
   inkscape:version="1.0 (4035a4fb49, 2020-05-01)"
   sodipodi:docname="manage_courses_24px.svg"
   viewBox="0 0 32 32"
   height="32"
   width="32"
   xml:space="preserve"
   id="svg2"
   version="1.1"><metadata
     id="metadata8"><rdf:RDF><cc:Work
         rdf:about=""><dc:format>image/svg+xml</dc:format><dc:type
           rdf:resource="http://purl.org/dc/dcmitype/StillImage" /><dc:title /></cc:Work></rdf:RDF></metadata><defs
     id="defs6"><clipPath
       id="clipPath18"
       clipPathUnits="userSpaceOnUse"><path
         id="path16"
         d="M 0,24 H 24 V 0 H 0 Z" /></clipPath><clipPath
       id="clipPath26"
       clipPathUnits="userSpaceOnUse"><path
         id="path24"
         d="M 2.00005,22 H 22 V 2.00005 H 2.00005 Z" /></clipPath><clipPath
       id="clipPath42"
       clipPathUnits="userSpaceOnUse"><path
         id="path40"
         d="M 3,21 H 21 V 3 H 3 Z" /></clipPath><clipPath
       id="clipPath58"
       clipPathUnits="userSpaceOnUse"><path
         id="path56"
         d="M 4,22 H 20 V 2 H 4 Z" /></clipPath><clipPath
       id="clipPath74"
       clipPathUnits="userSpaceOnUse"><path
         id="path72"
         d="M 2,20 H 22 V 4 H 2 Z" /></clipPath><clipPath
       id="clipPath90"
       clipPathUnits="userSpaceOnUse"><path
         id="path88"
         d="M 0,24 H 24 V 0 H 0 Z" /></clipPath><clipPath
       id="clipPath100"
       clipPathUnits="userSpaceOnUse"><path
         id="path98"
         d="M 0,48 H 48 V 0 H 0 Z" /></clipPath><clipPath
       id="clipPath108"
       clipPathUnits="userSpaceOnUse"><path
         id="path106"
         d="M 0,24 H 24 V 0 H 0 Z" /></clipPath><clipPath
       id="clipPath116"
       clipPathUnits="userSpaceOnUse"><path
         id="path114"
         d="M -2.13623e-4,24.0002 H 23.9997 V 2.74658e-4 H -2.13623e-4 Z" /></clipPath><clipPath
       id="clipPath120"
       clipPathUnits="userSpaceOnUse"><path
         id="path118"
         d="M -2.13623e-4,47.9998 H 47.9998 V -1.52588e-4 H -2.13623e-4 Z" /></clipPath><clipPath
       id="clipPath124"
       clipPathUnits="userSpaceOnUse"><path
         id="path122"
         d="M 48,48 H 0 V 0 h 48 z" /></clipPath><clipPath
       id="clipPath332"
       clipPathUnits="userSpaceOnUse"><path
         id="path330"
         d="M 0,24 H 24 V 0 H 0 Z" /></clipPath><clipPath
       id="clipPath342"
       clipPathUnits="userSpaceOnUse"><path
         id="path340"
         d="M -2.28882e-4,48.0001 H 47.9998 V 1.2207e-4 H -2.28882e-4 Z" /></clipPath><clipPath
       id="clipPath350"
       clipPathUnits="userSpaceOnUse"><path
         id="path348"
         d="M -2.28882e-4,48.0001 H 47.9998 V 1.2207e-4 H -2.28882e-4 Z" /></clipPath><clipPath
       id="clipPath354"
       clipPathUnits="userSpaceOnUse"><path
         id="path352"
         d="M 0,0 H 48 V 48 H 0 Z" /></clipPath><clipPath
       clipPathUnits="userSpaceOnUse"
       id="clipPath894"><path
         d="M 0,24 H 24 V 0 H 0 Z"
         id="path892" /></clipPath><clipPath
       clipPathUnits="userSpaceOnUse"
       id="clipPath902"><path
         d="M 2.00005,22 H 22 V 2.00005 H 2.00005 Z"
         id="path900" /></clipPath><clipPath
       clipPathUnits="userSpaceOnUse"
       id="clipPath918"><path
         d="M 3,21 H 21 V 3 H 3 Z"
         id="path916" /></clipPath><clipPath
       clipPathUnits="userSpaceOnUse"
       id="clipPath934"><path
         d="M 4,22 H 20 V 2 H 4 Z"
         id="path932" /></clipPath><clipPath
       clipPathUnits="userSpaceOnUse"
       id="clipPath950"><path
         d="M 2,20 H 22 V 4 H 2 Z"
         id="path948" /></clipPath><clipPath
       clipPathUnits="userSpaceOnUse"
       id="clipPath966"><path
         d="M 0,24 H 24 V 0 H 0 Z"
         id="path964" /></clipPath><clipPath
       clipPathUnits="userSpaceOnUse"
       id="clipPath976"><path
         d="M 0,48 H 48 V 0 H 0 Z"
         id="path974" /></clipPath><clipPath
       clipPathUnits="userSpaceOnUse"
       id="clipPath984"><path
         d="M 0,24 H 24 V 0 H 0 Z"
         id="path982" /></clipPath><clipPath
       clipPathUnits="userSpaceOnUse"
       id="clipPath992"><path
         d="M -2.13623e-4,24.0002 H 23.9997 V 2.74658e-4 H -2.13623e-4 Z"
         id="path990" /></clipPath><clipPath
       clipPathUnits="userSpaceOnUse"
       id="clipPath996"><path
         d="M -2.13623e-4,47.9998 H 47.9998 V -1.52588e-4 H -2.13623e-4 Z"
         id="path994" /></clipPath><clipPath
       clipPathUnits="userSpaceOnUse"
       id="clipPath1000"><path
         d="M 48,48 H 0 V 0 h 48 z"
         id="path998" /></clipPath><clipPath
       clipPathUnits="userSpaceOnUse"
       id="clipPath1208"><path
         d="M 0,24 H 24 V 0 H 0 Z"
         id="path1206" /></clipPath><clipPath
       clipPathUnits="userSpaceOnUse"
       id="clipPath1218"><path
         d="M -2.28882e-4,48.0001 H 47.9998 V 1.2207e-4 H -2.28882e-4 Z"
         id="path1216" /></clipPath><clipPath
       clipPathUnits="userSpaceOnUse"
       id="clipPath1226"><path
         d="M -2.28882e-4,48.0001 H 47.9998 V 1.2207e-4 H -2.28882e-4 Z"
         id="path1224" /></clipPath><clipPath
       clipPathUnits="userSpaceOnUse"
       id="clipPath1230"><path
         d="M 0,0 H 48 V 48 H 0 Z"
         id="path1228" /></clipPath><clipPath
       clipPathUnits="userSpaceOnUse"
       id="clipPath1562"><path
         d="M 0,24 H 24 V 0 H 0 Z"
         id="path1560" /></clipPath><clipPath
       clipPathUnits="userSpaceOnUse"
       id="clipPath1570"><path
         d="M 2.00005,22 H 22 V 2.00005 H 2.00005 Z"
         id="path1568" /></clipPath><clipPath
       clipPathUnits="userSpaceOnUse"
       id="clipPath1586"><path
         d="M 3,21 H 21 V 3 H 3 Z"
         id="path1584" /></clipPath><clipPath
       clipPathUnits="userSpaceOnUse"
       id="clipPath1602"><path
         d="M 4,22 H 20 V 2 H 4 Z"
         id="path1600" /></clipPath><clipPath
       clipPathUnits="userSpaceOnUse"
       id="clipPath1618"><path
         d="M 2,20 H 22 V 4 H 2 Z"
         id="path1616" /></clipPath><clipPath
       clipPathUnits="userSpaceOnUse"
       id="clipPath1634"><path
         d="M 0,24 H 24 V 0 H 0 Z"
         id="path1632" /></clipPath><clipPath
       clipPathUnits="userSpaceOnUse"
       id="clipPath1644"><path
         d="M 0,48 H 48 V 0 H 0 Z"
         id="path1642" /></clipPath><clipPath
       clipPathUnits="userSpaceOnUse"
       id="clipPath1652"><path
         d="M 0,24 H 24 V 0 H 0 Z"
         id="path1650" /></clipPath><clipPath
       clipPathUnits="userSpaceOnUse"
       id="clipPath1660"><path
         d="M -2.13623e-4,24.0002 H 23.9997 V 2.74658e-4 H -2.13623e-4 Z"
         id="path1658" /></clipPath><clipPath
       clipPathUnits="userSpaceOnUse"
       id="clipPath1664"><path
         d="M -2.13623e-4,47.9998 H 47.9998 V -1.52588e-4 H -2.13623e-4 Z"
         id="path1662" /></clipPath><clipPath
       clipPathUnits="userSpaceOnUse"
       id="clipPath1668"><path
         d="M 48,48 H 0 V 0 h 48 z"
         id="path1666" /></clipPath><clipPath
       clipPathUnits="userSpaceOnUse"
       id="clipPath1876"><path
         d="M 0,24 H 24 V 0 H 0 Z"
         id="path1874" /></clipPath><clipPath
       clipPathUnits="userSpaceOnUse"
       id="clipPath1886"><path
         d="M -2.28882e-4,48.0001 H 47.9998 V 1.2207e-4 H -2.28882e-4 Z"
         id="path1884" /></clipPath><clipPath
       clipPathUnits="userSpaceOnUse"
       id="clipPath1894"><path
         d="M -2.28882e-4,48.0001 H 47.9998 V 1.2207e-4 H -2.28882e-4 Z"
         id="path1892" /></clipPath><clipPath
       clipPathUnits="userSpaceOnUse"
       id="clipPath1898"><path
         d="M 0,0 H 48 V 48 H 0 Z"
         id="path1896" /></clipPath></defs><sodipodi:namedview
     inkscape:current-layer="layer1"
     inkscape:window-maximized="1"
     inkscape:window-y="-9"
     inkscape:window-x="-9"
     inkscape:cy="1.5777351"
     inkscape:cx="7.3665247"
     inkscape:zoom="12.055708"
     inkscape:guide-bbox="true"
     showguides="true"
     showgrid="false"
     id="namedview4"
     inkscape:window-height="1001"
     inkscape:window-width="1920"
     inkscape:pageshadow="2"
     inkscape:pageopacity="0"
     guidetolerance="10"
     gridtolerance="10"
     objecttolerance="10"
     borderopacity="1"
     bordercolor="#666666"
     pagecolor="#ffffff"
     inkscape:document-rotation="0"><sodipodi:guide
       id="guide1521"
       orientation="0,-1"
       position="12.228556,13.043466" /><sodipodi:guide
       id="guide1523"
       orientation="1,0"
       position="12.228556,13.043466" /><sodipodi:guide
       id="guide1529"
       orientation="1,0"
       position="13.93328,8.1224951" /><sodipodi:guide
       id="guide1531"
       orientation="0,-1"
       position="13.93328,8.1224951" /></sodipodi:namedview><g
     inkscape:label="b"
     id="layer4"
     inkscape:groupmode="layer" /><g
     style="display:inline"
     inkscape:label="cap"
     id="layer2"
     inkscape:groupmode="layer" /><g
     style="display:inline"
     inkscape:label="settBack"
     id="layer3"
     inkscape:groupmode="layer" /><g
     style="display:inline"
     inkscape:label="sett"
     id="layer1"
     inkscape:groupmode="layer"><g
       transform="translate(1.2088261,-0.71601908)"
       id="g1544"><g
         style="display:inline"
         id="g1514"
         transform="translate(4,4)"><path
           id="path1500"
           fill="none"
           d="M 0,0 H 24 V 24 H 0 Z" /><path
           id="path1502"
           d="m 8.228556,14.956534 c 1.2060921,1.294062 1.865929,2.884662 1.704724,4.920971 L 12,21 19,17.18 v -4 L 12,17 Z M 12,3 1,9 12,15 21,10.09 V 17 h 2 V 9 Z"
           sodipodi:nodetypes="ccccccccccccccc" /></g><g
         id="g1261"
         transform="matrix(0.51527559,0,0,0.51527559,1.5823479,17.065424)"><path
           id="path1257"
           fill="none"
           d="M 0,0 H 24 V 24 H 0 Z" /><path
           id="path1259"
           d="m 19.14,12.94 c 0.04,-0.3 0.06,-0.61 0.06,-0.94 0,-0.32 -0.02,-0.64 -0.07,-0.94 L 21.16,9.48 C 21.34,9.34 21.39,9.07 21.28,8.87 L 19.36,5.55 C 19.24,5.33 18.99,5.26 18.77,5.33 L 16.38,6.29 C 15.88,5.91 15.35,5.59 14.76,5.35 L 14.4,2.81 C 14.36,2.57 14.16,2.4 13.92,2.4 H 10.08 C 9.84,2.4 9.65,2.57 9.61,2.81 L 9.25,5.35 C 8.66,5.59 8.12,5.92 7.63,6.29 L 5.24,5.33 C 5.02,5.25 4.77,5.33 4.65,5.55 L 2.74,8.87 C 2.62,9.08 2.66,9.34 2.86,9.48 l 2.03,1.58 C 4.84,11.36 4.8,11.69 4.8,12 c 0,0.31 0.02,0.64 0.07,0.94 l -2.03,1.58 c -0.18,0.14 -0.23,0.41 -0.12,0.61 l 1.92,3.32 c 0.12,0.22 0.37,0.29 0.59,0.22 l 2.39,-0.96 c 0.5,0.38 1.03,0.7 1.62,0.94 l 0.36,2.54 c 0.05,0.24 0.24,0.41 0.48,0.41 h 3.84 c 0.24,0 0.44,-0.17 0.47,-0.41 l 0.36,-2.54 c 0.59,-0.24 1.13,-0.56 1.62,-0.94 l 2.39,0.96 c 0.22,0.08 0.47,0 0.59,-0.22 l 1.92,-3.32 c 0.12,-0.22 0.07,-0.47 -0.12,-0.61 z M 12,15.6 c -1.98,0 -3.6,-1.62 -3.6,-3.6 0,-1.98 1.62,-3.6 3.6,-3.6 1.98,0 3.6,1.62 3.6,3.6 0,1.98 -1.62,3.6 -3.6,3.6 z" /></g></g></g></svg>
